<?xml version="1.0" standalone="no"?>
<!DOCTYPE svg PUBLIC "-//W3C//DTD SVG 20010904//EN"
 "http://www.w3.org/TR/2001/REC-SVG-20010904/DTD/svg10.dtd">
<svg version="1.0" xmlns="http://www.w3.org/2000/svg"
 width="354.000000pt" height="472.000000pt" viewBox="0 0 354.000000 472.000000"
 preserveAspectRatio="xMidYMid meet">

<g transform="translate(0.000000,472.000000) scale(0.100000,-0.100000)"
fill="#000000" stroke="none">
<path d="M1490 4549 c-62 -8 -141 -38 -168 -66 -7 -7 -18 -13 -24 -13 -6 0
-36 -13 -67 -28 -31 -16 -74 -35 -96 -42 -25 -7 -57 -31 -85 -61 -55 -59 -100
-114 -100 -124 0 -4 -15 -25 -34 -48 -38 -48 -86 -147 -86 -180 0 -12 -12 -42
-25 -66 -14 -24 -23 -46 -20 -49 3 -3 5 0 5 6 0 7 4 12 9 12 5 0 5 -16 -1 -37
-5 -21 -11 -104 -14 -184 -4 -140 -3 -148 21 -204 14 -31 33 -85 41 -119 8
-33 19 -77 24 -96 5 -19 10 -52 10 -72 0 -21 4 -38 9 -38 5 0 19 -19 30 -42
16 -35 21 -74 27 -213 12 -277 10 -407 -9 -455 -3 -8 -8 -28 -12 -44 -5 -23
-8 -27 -16 -15 -5 7 -9 12 -10 9 0 -3 -3 -14 -5 -25 -3 -11 -6 -28 -8 -38 -1
-10 -8 -22 -15 -27 -8 -4 -10 -13 -6 -20 6 -10 1 -11 -21 -7 -26 6 -27 5 -7
-5 19 -9 22 -18 20 -64 -2 -50 -3 -52 -27 -50 -14 2 -17 1 -7 -1 9 -2 17 -9
17 -15 0 -5 -7 -7 -16 -4 -8 3 -13 2 -10 -3 3 -4 1 -22 -4 -40 -8 -29 3 -45
13 -18 3 6 3 -3 0 -20 -5 -32 10 -47 20 -20 3 6 6 2 6 -10 1 -17 -3 -20 -21
-15 -13 3 -26 10 -30 16 -5 7 -8 7 -8 1 0 -6 9 -18 20 -28 22 -19 25 -33 10
-42 -6 -3 -7 -18 -4 -33 6 -26 6 -27 -11 -7 -14 17 -14 15 2 -13 16 -29 18
-31 25 -12 4 11 10 20 12 20 3 0 -1 -18 -9 -41 -14 -39 -14 -41 5 -46 14 -4
19 -11 15 -23 -7 -23 18 -45 32 -28 18 23 25 39 16 37 -29 -5 -54 33 -31 48 7
3 8 1 4 -5 -4 -6 1 -10 13 -9 16 1 18 4 8 16 -9 12 -9 13 1 7 7 -4 12 -2 12 4
0 6 5 8 10 5 6 -4 17 -2 25 5 9 7 15 8 19 1 5 -7 14 -7 30 0 26 12 58 85 101
232 15 48 30 87 34 87 5 0 21 -52 36 -115 15 -64 30 -117 34 -119 3 -2 5 35 3
82 -2 66 0 83 8 70 6 -10 16 -18 23 -18 7 0 25 -16 40 -35 15 -19 33 -35 39
-35 5 0 32 -16 58 -35 27 -20 52 -35 57 -34 4 1 22 -3 38 -10 93 -40 163 -53
280 -55 95 -1 130 3 168 18 61 23 225 113 256 140 13 12 21 15 17 9 -4 -7 -2
-13 3 -13 6 0 11 6 11 13 0 8 9 22 20 32 20 18 20 18 18 -1 -1 -10 1 -37 5
-59 6 -29 3 -57 -12 -104 -24 -76 -15 -69 20 14 23 58 26 94 17 199 -2 16 2
31 10 33 7 3 12 -4 12 -15 0 -11 15 -40 33 -64 18 -24 47 -68 65 -99 28 -49
37 -57 84 -72 32 -10 81 -39 123 -73 86 -69 85 -68 165 -83 36 -7 84 -19 107
-27 43 -14 198 -9 188 6 -7 11 58 5 80 -7 11 -6 24 -11 28 -11 5 -1 18 -13 29
-27 12 -15 27 -24 35 -21 8 3 12 2 9 -3 -9 -14 20 -21 33 -8 6 6 11 8 11 4 0
-4 9 -3 19 2 15 8 20 7 25 -5 4 -10 13 -14 22 -10 8 3 13 2 10 -3 -3 -5 1 -11
9 -15 9 -3 15 0 15 10 0 8 4 13 10 9 5 -3 7 -12 4 -19 -3 -8 3 -17 14 -20 11
-4 42 -27 68 -51 27 -25 52 -45 57 -45 4 0 7 122 7 271 0 247 -2 273 -17 285
-15 12 -15 13 -2 8 13 -4 15 0 12 19 -5 23 -6 24 -31 11 -33 -17 -49 -18 -55
-1 -3 7 -6 4 -6 -6 -1 -10 -5 -16 -11 -12 -5 3 -7 12 -3 20 8 23 -11 18 -26
-7 l-14 -22 -8 22 c-5 12 -16 22 -25 22 -10 0 -14 5 -10 15 3 8 1 15 -4 15
-14 0 -12 -34 2 -48 7 -7 8 -12 3 -12 -14 0 -42 20 -30 20 6 0 3 5 -5 10 -13
9 -13 11 0 20 13 9 13 10 0 10 -9 1 -6 5 8 10 28 12 30 34 1 25 -15 -5 -19 -4
-15 4 11 18 -5 13 -21 -7 -14 -16 -14 -16 -9 0 3 10 1 20 -5 24 -7 4 -7 10 0
18 7 8 4 12 -10 12 -12 0 -18 -5 -15 -13 3 -7 -1 -13 -9 -13 -8 0 -15 -4 -15
-10 0 -5 -5 -10 -11 -10 -6 0 -8 9 -4 20 5 16 3 19 -12 14 -14 -5 -15 -4 -4 4
8 6 20 8 28 5 9 -4 11 0 7 11 -4 11 0 16 12 16 18 1 18 1 1 11 -10 6 -21 8
-24 5 -3 -3 -14 4 -25 16 -19 22 -18 28 4 31 23 4 20 22 -4 28 -13 3 -32 0
-43 -8 -19 -11 -21 -10 -20 15 0 22 -4 27 -23 25 -15 -2 -21 1 -16 8 3 6 14 9
24 6 30 -8 32 38 3 54 -12 7 -23 16 -23 21 0 4 -8 8 -17 8 -13 0 -15 2 -5 8
17 11 4 42 -14 35 -12 -4 -14 0 -8 21 3 15 2 26 -2 25 -20 -3 -31 2 -31 15 0
8 6 12 15 8 9 -3 13 -1 9 5 -4 6 -1 14 5 16 8 4 7 6 -4 6 -11 1 -16 8 -13 19
2 10 -1 25 -6 33 -7 11 -9 11 -9 -3 0 -17 -23 -19 -37 -3 -4 4 -2 5 5 1 7 -4
12 -1 12 8 0 9 -6 16 -14 16 -23 0 -15 54 9 62 19 6 18 6 -2 7 -25 1 -33 31
-8 31 8 0 15 4 15 10 0 5 -7 7 -15 4 -10 -4 -15 0 -15 16 0 11 -4 19 -9 16 -5
-3 -20 4 -35 15 -27 21 -34 45 -16 51 16 5 0 68 -17 68 -11 0 -13 -4 -6 -12
16 -21 23 -48 13 -48 -6 0 -10 9 -10 20 0 11 -6 20 -14 20 -9 0 -12 7 -9 19 3
12 11 17 20 14 13 -5 13 -1 -2 26 -9 18 -15 40 -13 49 1 9 -1 23 -5 29 -6 9
-3 11 8 7 13 -6 14 -3 4 19 -6 14 -18 28 -26 31 -8 3 -11 2 -8 -3 3 -5 1 -12
-4 -15 -5 -3 -14 8 -20 24 -5 17 -13 30 -16 30 -3 0 -3 -4 0 -10 3 -5 1 -10
-4 -10 -6 0 -11 7 -11 15 0 8 -5 15 -11 15 -7 0 -9 10 -5 26 5 17 3 23 -4 19
-5 -3 -10 -13 -10 -21 0 -8 -4 -14 -9 -14 -12 0 -21 26 -21 60 0 19 -6 29 -20
33 -11 3 -20 1 -20 -4 0 -5 8 -9 18 -10 12 0 13 -2 3 -6 -8 -3 -29 2 -48 12
-26 14 -32 23 -27 38 5 16 3 19 -10 14 -9 -4 -16 -3 -16 2 0 14 -37 51 -44 44
-3 -3 -7 0 -7 8 -1 8 -3 25 -4 39 -2 14 3 47 11 74 8 27 14 64 14 82 0 17 7
51 16 75 8 24 17 51 19 60 2 9 8 33 13 52 6 20 7 38 4 41 -3 3 0 6 6 6 6 0 9
7 6 15 -4 8 -1 15 4 15 6 0 10 12 10 28 0 15 19 68 43 117 37 76 44 99 44 150
0 59 -33 154 -48 139 -3 -4 -12 5 -18 20 -7 14 -18 26 -25 26 -9 0 -6 -14 11
-46 18 -34 25 -63 25 -101 0 -52 -21 -116 -42 -129 -6 -4 -5 3 1 14 28 52 2
135 -66 212 -22 25 -49 59 -59 75 -21 34 -61 47 -43 14 13 -25 5 -24 -27 4
-14 12 -31 22 -37 22 -7 0 -18 4 -25 8 -21 14 -96 17 -103 5 -5 -8 -21 -4 -53
10 -25 12 -54 22 -63 22 -10 0 -36 7 -58 15 -22 8 -55 14 -73 15 -18 0 -60 12
-95 26 -44 18 -93 28 -167 35 -185 15 -214 16 -280 8z m263 -166 c-7 -2 -19
-2 -25 0 -7 3 -2 5 12 5 14 0 19 -2 13 -5z m412 -83 c3 -6 -1 -7 -9 -4 -18 7
-21 14 -7 14 6 0 13 -4 16 -10z m-388 -6 c-3 -3 -12 -4 -19 -1 -8 3 -5 6 6 6
11 1 17 -2 13 -5z m-5 -36 c-9 -9 -15 -9 -24 0 -9 9 -7 12 12 12 19 0 21 -3
12 -12z m-59 -59 c-8 -8 -16 -8 -30 0 -16 9 -14 10 12 11 21 0 26 -3 18 -11z
m-53 -15 c0 -2 -9 -4 -21 -4 -11 0 -18 4 -14 10 5 8 35 3 35 -6z m1046 -48
c-4 -24 -13 -52 -21 -62 -13 -16 -13 -13 0 25 8 24 15 58 16 75 0 17 3 25 6
18 3 -7 2 -33 -1 -56z m-1232 -105 c3 -4 3 -11 0 -14 -8 -7 -44 4 -44 14 0 12
37 12 44 0z m555 -81 c76 -21 115 -43 163 -93 53 -53 55 -59 83 -238 7 -45 37
-109 63 -132 32 -29 48 -82 87 -282 35 -184 36 -194 25 -279 -7 -48 -18 -100
-26 -114 -8 -15 -14 -34 -14 -42 0 -9 -9 -33 -20 -54 -10 -21 -19 -53 -18 -70
1 -40 -11 -78 -23 -71 -8 6 -13 -15 -10 -42 1 -7 -3 -22 -9 -33 -9 -16 -8 -19
6 -13 10 3 15 2 12 -3 -3 -5 -8 -18 -13 -29 l-7 -20 -8 20 c-8 18 -10 17 -21
-13 -8 -20 -19 -30 -27 -27 -8 3 -10 0 -5 -8 10 -15 11 -57 2 -51 -12 7 -59
-41 -59 -60 0 -21 -40 -67 -53 -59 -6 3 -16 -2 -23 -12 -12 -16 -16 -16 -31
-4 -9 8 -14 9 -10 2 4 -6 3 -14 -3 -18 -6 -4 -10 8 -10 31 0 21 -3 34 -7 31
-3 -4 -15 0 -25 10 -11 9 -18 11 -18 5 0 -7 6 -12 13 -13 10 0 10 -2 0 -6 -7
-2 -13 -12 -14 -21 0 -13 -3 -11 -11 6 -14 27 -32 29 -25 2 7 -27 -7 -25 -26
3 l-16 22 -1 -30 c0 -23 -3 -26 -10 -15 -7 12 -12 12 -21 3 -10 -10 -16 -10
-28 0 -12 10 -14 9 -9 -5 4 -10 1 -19 -8 -22 -8 -3 -14 -1 -14 5 0 6 -4 8 -9
5 -4 -3 -6 -17 -3 -31 3 -16 0 -25 -8 -25 -7 0 -10 -7 -7 -15 9 -22 -13 -29
-28 -9 -13 18 -14 18 -20 2 -4 -10 -11 -15 -16 -12 -5 3 -12 -2 -15 -11 -6
-13 -8 -14 -15 -3 -8 11 -11 11 -18 -1 -5 -7 -14 -10 -20 -7 -6 4 -11 3 -11
-3 0 -5 -9 -9 -19 -8 -12 1 -17 6 -13 15 3 10 0 13 -9 10 -8 -3 -19 2 -26 11
-11 14 -12 13 -13 -7 0 -13 -4 -20 -10 -17 -5 3 -10 17 -10 29 0 18 -5 23 -22
22 -15 -1 -23 -7 -22 -19 1 -9 -3 -14 -8 -11 -5 4 -8 15 -5 25 3 11 1 19 -4
19 -5 0 -9 -6 -10 -12 0 -10 -2 -10 -6 0 -8 20 -26 13 -20 -9 4 -16 3 -18 -9
-8 -8 6 -14 20 -14 31 0 12 -4 16 -11 12 -8 -5 -10 2 -6 22 5 27 4 27 -9 9 -8
-10 -14 -27 -14 -37 0 -10 -7 -18 -15 -18 -14 0 -14 4 0 37 18 43 10 57 -15
26 -38 -48 -43 -6 -4 44 l25 33 -25 -11 c-13 -6 -22 -17 -20 -24 7 -18 -17
-30 -27 -14 -12 20 -11 31 3 23 7 -4 8 -3 4 5 -4 6 -2 19 5 27 10 12 9 13 -6
8 -14 -6 -16 -4 -10 6 5 9 4 11 -3 6 -7 -4 -12 -16 -12 -26 0 -10 -6 -21 -12
-24 -10 -3 -9 -8 3 -18 15 -12 15 -16 2 -33 -16 -20 -16 -20 -9 0 5 15 4 17
-4 9 -6 -6 -12 -20 -13 -31 -1 -18 -5 -20 -25 -12 -13 5 -28 7 -33 4 -5 -4 -6
1 -3 10 4 9 3 15 -2 14 -14 -4 -67 24 -81 41 -7 8 -13 11 -14 5 0 -5 -4 1 -8
15 -4 14 -13 24 -19 23 -8 -2 -43 86 -46 119 -1 3 -4 10 -9 14 -9 10 -9 57 1
51 4 -3 7 5 7 18 0 13 -3 21 -6 19 -14 -8 -30 26 -33 68 -2 24 -11 61 -19 83
-9 22 -16 51 -17 65 0 14 -7 57 -15 95 -17 81 -19 166 -5 250 5 32 13 107 16
165 6 87 12 116 36 167 16 35 31 86 33 114 7 87 58 199 106 231 13 9 33 24 45
34 73 67 168 100 339 120 107 12 133 17 180 34 27 10 61 20 75 23 49 7 156 -3
229 -23z m568 -744 c24 -20 30 -33 31 -73 2 -26 5 -56 8 -65 9 -31 -15 -129
-52 -212 -20 -45 -41 -101 -48 -126 -14 -57 -23 -70 -46 -70 -26 0 -29 17 -19
106 5 43 9 133 8 200 -1 66 1 126 5 132 4 7 2 12 -3 12 -16 0 -13 32 5 58 8
12 12 22 7 22 -16 1 40 40 57 40 10 0 31 -11 47 -24z m420 -571 c0 -8 -4 -15
-9 -15 -4 0 -8 7 -8 15 0 8 4 15 8 15 5 0 9 -7 9 -15z m-1984 -135 c3 -11 1
-18 -4 -14 -5 3 -9 12 -9 20 0 20 7 17 13 -6z m2117 -180 c0 -5 -7 -10 -16
-10 -8 0 -12 5 -9 10 3 6 10 10 16 10 5 0 9 -4 9 -10z m32 -122 c-7 -7 -12 -8
-12 -2 0 14 12 26 19 19 2 -3 -1 -11 -7 -17z m-1276 -43 c-6 -29 -9 -33 -20
-22 -10 9 -11 14 -2 20 8 6 8 10 -1 14 -18 7 -16 24 2 17 8 -4 15 -1 15 7 0 7
3 10 6 6 4 -3 3 -22 0 -42z m-339 -37 c-3 -8 -6 -5 -6 6 -1 11 2 17 5 13 3 -3
4 -12 1 -19z m1710 -12 c-5 -16 -27 -19 -27 -3 0 7 7 14 15 14 9 0 14 -5 12
-11z m43 -36 c0 -5 -2 -10 -4 -10 -3 0 -8 5 -11 10 -3 6 -1 10 4 10 6 0 11 -4
11 -10z m97 4 c-3 -3 -12 -4 -19 -1 -8 3 -5 6 6 6 11 1 17 -2 13 -5z m-53 -30
c3 -8 2 -12 -4 -9 -6 3 -10 10 -10 16 0 14 7 11 14 -7z m-24 -44 c-18 -12 -30
-13 -30 -2 0 4 10 9 22 9 18 2 20 0 8 -7z m-30 -58 c0 -4 -9 -8 -20 -9 -11 -1
-20 2 -20 8 0 5 9 9 20 9 11 0 20 -4 20 -8z m-2420 -161 c0 -6 -4 -13 -10 -16
-5 -3 -10 1 -10 9 0 9 5 16 10 16 6 0 10 -4 10 -9z"/>
<path d="M1975 3384 c-5 -1 -27 -5 -47 -8 -31 -6 -37 -11 -43 -39 -4 -19 -21
-45 -42 -63 -35 -30 -36 -33 -19 -49 13 -13 20 -15 29 -6 6 6 17 11 24 11 11
0 11 -5 3 -20 -14 -27 -7 -25 42 10 40 29 86 41 72 19 -3 -6 -3 -14 2 -18 5
-3 14 -15 20 -26 11 -20 54 -30 54 -13 0 5 7 16 15 25 8 8 13 19 10 24 -12 18
23 9 60 -17 21 -14 45 -22 53 -19 26 10 -5 32 -84 61 -62 23 -65 25 -27 21 23
-3 56 -12 74 -21 18 -9 41 -16 52 -16 19 0 19 1 2 20 -10 11 -47 26 -91 35
l-73 17 27 24 c26 22 26 23 5 24 -12 0 -23 4 -25 9 -3 8 -75 20 -93 15z m58
-111 c-7 -2 -21 -2 -30 0 -10 3 -4 5 12 5 17 0 24 -2 18 -5z m8 -56 c-13 -13
-26 -3 -16 12 3 6 11 8 17 5 6 -4 6 -10 -1 -17z"/>
<path d="M1307 3332 c-9 -2 -15 -8 -11 -13 3 -5 -9 -12 -26 -16 -17 -3 -28 -9
-23 -12 4 -3 14 -14 21 -23 12 -15 9 -18 -26 -27 -42 -12 -92 -46 -92 -63 0
-5 7 -8 15 -4 9 3 15 0 15 -8 0 -12 30 -33 34 -24 9 25 29 47 56 62 31 18 33
18 27 3 -4 -11 -1 -20 8 -23 8 -3 17 -14 20 -24 6 -19 45 -35 45 -18 0 5 5 6
10 3 12 -7 33 43 26 62 -7 18 8 16 56 -8 34 -17 40 -18 35 -5 -7 18 4 21 20 5
7 -7 12 -4 16 11 4 16 0 23 -16 29 -12 5 -25 7 -30 4 -4 -2 -11 7 -16 20 -18
48 -99 81 -164 69z m58 -132 c3 -5 -1 -10 -10 -10 -9 0 -13 5 -10 10 3 6 8 10
10 10 2 0 7 -4 10 -10z m30 -10 c3 -5 1 -10 -4 -10 -6 0 -11 5 -11 10 0 6 2
10 4 10 3 0 8 -4 11 -10z"/>
<path d="M1110 3275 c0 -9 6 -12 15 -9 8 4 15 10 15 15 0 5 -7 9 -15 9 -8 0
-15 -7 -15 -15z"/>
<path d="M1709 2794 l-34 -26 30 7 c80 18 98 18 92 1 -5 -13 1 -16 36 -15 23
0 36 3 30 6 -7 2 -13 11 -13 19 0 17 -40 34 -79 34 -15 0 -43 -12 -62 -26z"/>
<path d="M1533 2800 c-13 -5 -23 -14 -23 -20 0 -14 37 -13 46 1 4 7 24 9 52 6
43 -5 45 -4 22 9 -29 15 -65 17 -97 4z"/>
<path d="M1528 2753 c6 -2 18 -2 25 0 6 3 1 5 -13 5 -14 0 -19 -2 -12 -5z"/>
<path d="M1826 2695 c-9 -26 -7 -32 5 -12 6 10 9 21 6 23 -2 3 -7 -2 -11 -11z"/>
<path d="M1857 2690 c-3 -11 -1 -20 4 -20 5 0 9 9 9 20 0 11 -2 20 -4 20 -2 0
-6 -9 -9 -20z"/>
<path d="M1507 2671 c-4 -17 -3 -21 5 -13 5 5 8 16 6 23 -3 8 -7 3 -11 -10z"/>
<path d="M2316 2615 c-4 -11 -12 -29 -17 -40 -8 -17 -9 -16 -6 7 6 42 -11 23
-18 -20 -3 -20 -8 -50 -10 -65 -3 -17 -1 -26 5 -22 6 3 10 15 10 26 0 11 12
36 26 54 16 21 24 43 22 57 -4 22 -5 22 -12 3z"/>
<path d="M1070 2580 c0 -3 6 -24 13 -48 14 -46 30 -58 35 -26 3 16 1 16 -7 4
-9 -12 -11 -11 -11 8 0 13 4 21 9 18 4 -3 6 6 3 19 -4 26 -22 35 -22 13 0 -9
-4 -8 -10 2 -5 8 -10 13 -10 10z"/>
<path d="M2010 2571 c0 -5 7 -14 15 -21 16 -14 18 -10 9 14 -6 17 -24 22 -24
7z"/>
<path d="M1350 2559 c0 -5 5 -7 10 -4 6 3 10 8 10 11 0 2 -4 4 -10 4 -5 0 -10
-5 -10 -11z"/>
<path d="M1860 2551 l-45 -7 40 -8 c22 -4 47 -10 55 -13 22 -9 70 -12 70 -4
-1 29 -49 42 -120 32z"/>
<path d="M1431 2536 c-19 -23 5 -29 55 -15 34 10 40 15 27 21 -30 11 -70 9
-82 -6z"/>
<path d="M2231 2503 c-10 -26 -10 -27 4 -9 8 11 15 23 15 28 0 15 -7 8 -19
-19z"/>
<path d="M2190 2479 c0 -5 5 -7 10 -4 6 3 10 8 10 11 0 2 -4 4 -10 4 -5 0 -10
-5 -10 -11z"/>
<path d="M2228 2453 c7 -3 16 -2 19 1 4 3 -2 6 -13 5 -11 0 -14 -3 -6 -6z"/>
<path d="M1620 2396 c0 -19 62 -48 71 -34 4 6 5 18 1 26 -3 10 -1 13 6 8 7 -4
32 -10 57 -13 39 -4 44 -3 39 11 -8 22 -174 24 -174 2z"/>
<path d="M1496 2214 c-8 -21 -8 -24 3 -24 5 0 11 9 14 20 6 24 -8 27 -17 4z"/>
<path d="M2520 3137 c-24 -11 -24 -11 14 -15 43 -4 66 2 66 18 0 13 -48 12
-80 -3z"/>
<path d="M2649 4216 c9 -18 18 -32 20 -30 6 5 -20 64 -29 64 -4 0 0 -15 9 -34z"/>
<path d="M825 3069 c-10 -15 -4 -18 27 -12 15 3 25 9 22 14 -7 12 -41 11 -49
-2z"/>
<path d="M2880 3070 c0 -5 5 -10 11 -10 5 0 7 5 4 10 -3 6 -8 10 -11 10 -2 0
-4 -4 -4 -10z"/>
<path d="M2990 2743 c5 -2 8 -9 4 -14 -3 -5 0 -9 6 -9 15 0 7 23 -8 26 -7 1
-8 0 -2 -3z"/>
<path d="M829 2225 c-1 -3 -2 -8 -3 -12 -1 -5 -5 -13 -9 -19 -4 -7 0 -17 7
-23 9 -8 17 -8 20 -2 3 5 0 12 -6 14 -9 4 -9 8 -3 14 14 11 17 33 5 33 -5 0
-11 -2 -11 -5z"/>
<path d="M3375 2150 c3 -5 8 -10 11 -10 2 0 4 5 4 10 0 6 -5 10 -11 10 -5 0
-7 -4 -4 -10z"/>
<path d="M3424 2148 c-5 -8 -2 -9 9 -5 9 3 19 2 22 -3 4 -6 11 -10 16 -10 6 0
4 7 -5 15 -18 18 -32 19 -42 3z"/>
<path d="M1235 1866 c4 -16 13 -43 21 -60 l14 -31 -5 29 c-4 16 -13 43 -21 60
l-14 31 5 -29z"/>
<path d="M837 1749 c7 -7 15 -10 18 -7 3 3 -2 9 -12 12 -14 6 -15 5 -6 -5z"/>
<path d="M2206 1582 c-9 -17 -25 -34 -37 -37 -19 -6 -19 -8 -3 -19 13 -10 14
-17 5 -34 -17 -31 -13 -36 14 -18 28 18 39 21 30 6 -3 -5 -1 -10 4 -10 6 0 11
-7 11 -15 0 -17 16 -20 25 -5 8 13 52 13 61 -1 3 -6 29 -26 58 -44 28 -19 80
-62 116 -95 58 -55 106 -87 116 -77 2 2 -18 18 -46 36 -27 17 -100 87 -162
153 -62 67 -127 137 -145 156 l-32 34 -15 -30z"/>
<path d="M1275 1552 c-30 -27 -79 -100 -108 -165 -15 -32 -48 -84 -74 -115
-48 -57 -38 -56 25 2 18 17 40 46 49 64 9 18 26 35 39 38 13 3 24 10 24 15 0
5 7 9 15 9 9 0 15 9 15 25 0 14 11 47 25 73 36 68 32 91 -10 54z"/>
<path d="M2120 1529 c0 -5 5 -7 10 -4 6 3 10 8 10 11 0 2 -4 4 -10 4 -5 0 -10
-5 -10 -11z"/>
<path d="M1240 1366 c0 -2 7 -7 16 -10 8 -3 12 -2 9 4 -6 10 -25 14 -25 6z"/>
<path d="M1280 1346 c0 -2 7 -7 16 -10 8 -3 12 -2 9 4 -6 10 -25 14 -25 6z"/>
<path d="M1355 1291 c19 -22 55 -46 55 -38 0 3 -17 17 -37 33 -31 23 -34 24
-18 5z"/>
<path d="M1526 1088 c16 -18 33 -37 38 -43 5 -6 5 1 1 15 -10 32 -34 60 -53
60 -11 0 -7 -9 14 -32z"/>
<path d="M1595 1050 c10 -11 20 -20 23 -20 3 0 -3 9 -13 20 -10 11 -20 20 -23
20 -3 0 3 -9 13 -20z"/>
<path d="M3375 299 c-4 -6 -1 -31 6 -57 l13 -46 13 31 c19 47 -9 110 -32 72z"/>
</g>
</svg>
